<mxfile host="app.diagrams.net" modified="2024-04-21T20:24:06.000Z" agent="Mozilla/5.0 (Macintosh; Intel Mac OS X 10_15_7) AppleWebKit/605.1.15 (KHTML, like Gecko) Version/15.6.1 Safari/605.1.15" etag="QCMXuETEPMWvxUMsxoz_" version="24.2.7" type="github">
  <diagram name="Page-1" id="KoURfJgvt9C7q-xGNZtt">
    <mxGraphModel dx="1764" dy="1244" grid="1" gridSize="10" guides="1" tooltips="1" connect="1" arrows="1" fold="1" page="1" pageScale="1" pageWidth="1000" pageHeight="1000" math="0" shadow="0">
      <root>
        <mxCell id="0" />
        <mxCell id="1" parent="0" />
        <mxCell id="BZpx_RzHeT3GizgwGUlG-1" value="&lt;h1 style=&quot;font-style: normal; font-variant-caps: normal; letter-spacing: normal; text-align: start; text-indent: 0px; text-transform: none; white-space: normal; word-spacing: 0px; -webkit-text-stroke-width: 0px; text-decoration: none; color: rgb(0, 0, 0); font-weight: normal; margin: 0px; padding: 0px; overflow: hidden; border: 0px; font-size: 42px; line-height: 1.375; word-wrap: break-word; flex-grow: 1;&quot; dir=&quot;ltr&quot; lang=&quot;sr-Latn&quot; class=&quot;firstHeading mw-first-heading&quot; id=&quot;firstHeading&quot;&gt;&lt;span class=&quot;mw-page-title-main&quot; style=&quot;font-size: 42px;&quot;&gt;Enkliktike&lt;/span&gt;&lt;/h1&gt;" style="text;whiteSpace=wrap;html=1;fontSize=42;fontFamily=Helvetica;" vertex="1" parent="1">
          <mxGeometry x="40" y="10" width="230" height="50" as="geometry" />
        </mxCell>
        <mxCell id="BZpx_RzHeT3GizgwGUlG-3" value="&lt;h1 style=&quot;font-style: normal; font-variant-caps: normal; letter-spacing: normal; text-align: start; text-indent: 0px; text-transform: none; white-space: normal; word-spacing: 0px; -webkit-text-stroke-width: 0px; text-decoration: none; color: rgb(0, 0, 0); font-weight: normal; margin: 0px; padding: 0px; overflow: hidden; border: 0px; font-size: 42px; line-height: 1.375; word-wrap: break-word; flex-grow: 1;&quot; dir=&quot;ltr&quot; lang=&quot;sr-Latn&quot; class=&quot;firstHeading mw-first-heading&quot; id=&quot;firstHeading&quot;&gt;&lt;span class=&quot;mw-page-title-main&quot; style=&quot;font-size: 42px;&quot;&gt;LI&lt;/span&gt;&lt;/h1&gt;&lt;div&gt;&lt;span class=&quot;mw-page-title-main&quot; style=&quot;font-size: 42px;&quot;&gt;&lt;br&gt;&lt;/span&gt;&lt;/div&gt;" style="text;whiteSpace=wrap;html=1;fontSize=42;fontFamily=Helvetica;strokeWidth=2;" vertex="1" parent="1">
          <mxGeometry x="40" y="350" width="60" height="50" as="geometry" />
        </mxCell>
        <mxCell id="BZpx_RzHeT3GizgwGUlG-4" value="&lt;h1 style=&quot;font-style: normal; font-variant-caps: normal; letter-spacing: normal; text-align: start; text-indent: 0px; text-transform: none; white-space: normal; word-spacing: 0px; -webkit-text-stroke-width: 0px; text-decoration: none; color: rgb(0, 0, 0); font-weight: normal; margin: 0px; padding: 0px; overflow: hidden; border: 0px; font-size: 42px; line-height: 1.375; word-wrap: break-word; flex-grow: 1;&quot; dir=&quot;ltr&quot; lang=&quot;sr-Latn&quot; class=&quot;firstHeading mw-first-heading&quot; id=&quot;firstHeading&quot;&gt;Glagoli&lt;/h1&gt;" style="text;whiteSpace=wrap;html=1;fontSize=42;fontFamily=Helvetica;strokeWidth=2;" vertex="1" parent="1">
          <mxGeometry x="160" y="150" width="180" height="50" as="geometry" />
        </mxCell>
        <mxCell id="BZpx_RzHeT3GizgwGUlG-6" value="&lt;h1 style=&quot;font-style: normal; font-variant-caps: normal; letter-spacing: normal; text-align: start; text-indent: 0px; text-transform: none; white-space: normal; word-spacing: 0px; -webkit-text-stroke-width: 0px; text-decoration: none; color: rgb(0, 0, 0); font-weight: normal; margin: 0px; padding: 0px; overflow: hidden; border: 0px; font-size: 42px; line-height: 1.375; word-wrap: break-word; flex-grow: 1;&quot; dir=&quot;ltr&quot; lang=&quot;sr-Latn&quot; class=&quot;firstHeading mw-first-heading&quot; id=&quot;firstHeading&quot;&gt;Dativ&lt;/h1&gt;" style="text;whiteSpace=wrap;html=1;fontSize=42;fontFamily=Helvetica;strokeWidth=2;" vertex="1" parent="1">
          <mxGeometry x="480" y="150" width="180" height="50" as="geometry" />
        </mxCell>
        <mxCell id="BZpx_RzHeT3GizgwGUlG-8" value="&lt;h1 style=&quot;font-style: normal; font-variant-caps: normal; letter-spacing: normal; text-align: start; text-indent: 0px; text-transform: none; white-space: normal; word-spacing: 0px; -webkit-text-stroke-width: 0px; text-decoration: none; color: rgb(0, 0, 0); font-weight: normal; margin: 0px; padding: 0px; overflow: hidden; border: 0px; font-size: 42px; line-height: 1.375; word-wrap: break-word; flex-grow: 1;&quot; dir=&quot;ltr&quot; lang=&quot;sr-Latn&quot; class=&quot;firstHeading mw-first-heading&quot; id=&quot;firstHeading&quot;&gt;Akuzativ&lt;/h1&gt;&lt;h1 style=&quot;font-style: normal; font-variant-caps: normal; letter-spacing: normal; text-align: start; text-indent: 0px; text-transform: none; white-space: normal; word-spacing: 0px; -webkit-text-stroke-width: 0px; text-decoration: none; color: rgb(0, 0, 0); font-weight: normal; margin: 0px; padding: 0px; overflow: hidden; border: 0px; font-size: 42px; line-height: 1.375; word-wrap: break-word; flex-grow: 1;&quot; dir=&quot;ltr&quot; lang=&quot;sr-Latn&quot; class=&quot;firstHeading mw-first-heading&quot; id=&quot;firstHeading&quot;&gt;Genetiv&amp;nbsp;&lt;br&gt;&lt;/h1&gt;" style="text;whiteSpace=wrap;html=1;fontSize=42;fontFamily=Helvetica;strokeWidth=2;" vertex="1" parent="1">
          <mxGeometry x="680" y="90" width="180" height="50" as="geometry" />
        </mxCell>
        <mxCell id="BZpx_RzHeT3GizgwGUlG-9" style="edgeStyle=orthogonalEdgeStyle;rounded=0;orthogonalLoop=1;jettySize=auto;html=1;exitX=0.5;exitY=1;exitDx=0;exitDy=0;fontFamily=Helvetica;strokeWidth=2;" edge="1" parent="1" source="BZpx_RzHeT3GizgwGUlG-6" target="BZpx_RzHeT3GizgwGUlG-6">
          <mxGeometry relative="1" as="geometry" />
        </mxCell>
        <mxCell id="BZpx_RzHeT3GizgwGUlG-11" value="&lt;h1 style=&quot;font-style: normal; font-variant-caps: normal; letter-spacing: normal; text-align: start; text-indent: 0px; text-transform: none; white-space: normal; word-spacing: 0px; -webkit-text-stroke-width: 0px; text-decoration: none; color: rgb(0, 0, 0); font-weight: normal; margin: 0px; padding: 0px; overflow: hidden; border: 0px; font-size: 42px; line-height: 1.375; word-wrap: break-word; flex-grow: 1;&quot; dir=&quot;ltr&quot; lang=&quot;sr-Latn&quot; class=&quot;firstHeading mw-first-heading&quot; id=&quot;firstHeading&quot;&gt;JE&lt;/h1&gt;&lt;div&gt;&lt;br&gt;&lt;/div&gt;&lt;div&gt;SE&lt;/div&gt;" style="text;whiteSpace=wrap;html=1;fontSize=42;fontFamily=Helvetica;strokeWidth=2;" vertex="1" parent="1">
          <mxGeometry x="920" y="300" width="60" height="50" as="geometry" />
        </mxCell>
        <mxCell id="BZpx_RzHeT3GizgwGUlG-12" value="&lt;h1 style=&quot;font-style: normal; font-variant-caps: normal; letter-spacing: normal; text-align: start; text-indent: 0px; text-transform: none; white-space: normal; word-spacing: 0px; -webkit-text-stroke-width: 0px; text-decoration: none; color: rgb(0, 0, 0); font-weight: normal; margin: 0px; padding: 0px; overflow: hidden; border: 0px; font-size: 42px; line-height: 1.375; word-wrap: break-word; flex-grow: 1;&quot; dir=&quot;ltr&quot; lang=&quot;sr-Latn&quot; class=&quot;firstHeading mw-first-heading&quot; id=&quot;firstHeading&quot;&gt;sam&lt;/h1&gt;&lt;div&gt;si&lt;/div&gt;&lt;div&gt;–&lt;/div&gt;" style="text;whiteSpace=wrap;html=1;fontSize=42;fontFamily=Helvetica;strokeWidth=2;" vertex="1" parent="1">
          <mxGeometry x="160" y="270" width="180" height="50" as="geometry" />
        </mxCell>
        <mxCell id="BZpx_RzHeT3GizgwGUlG-14" value="&lt;h1 style=&quot;font-style: normal; font-variant-caps: normal; letter-spacing: normal; text-align: start; text-indent: 0px; text-transform: none; white-space: normal; word-spacing: 0px; -webkit-text-stroke-width: 0px; text-decoration: none; color: rgb(0, 0, 0); font-weight: normal; margin: 0px; padding: 0px; overflow: hidden; border: 0px; font-size: 42px; line-height: 1.375; word-wrap: break-word; flex-grow: 1;&quot; dir=&quot;ltr&quot; lang=&quot;sr-Latn&quot; class=&quot;firstHeading mw-first-heading&quot; id=&quot;firstHeading&quot;&gt;smo&lt;/h1&gt;&lt;div&gt;ste&lt;/div&gt;&lt;div&gt;su&lt;/div&gt;" style="text;whiteSpace=wrap;html=1;fontSize=42;fontFamily=Helvetica;strokeWidth=2;" vertex="1" parent="1">
          <mxGeometry x="280" y="270" width="180" height="50" as="geometry" />
        </mxCell>
        <mxCell id="BZpx_RzHeT3GizgwGUlG-15" value="&lt;h1 style=&quot;font-style: normal; font-variant-caps: normal; letter-spacing: normal; text-align: start; text-indent: 0px; text-transform: none; white-space: normal; word-spacing: 0px; -webkit-text-stroke-width: 0px; text-decoration: none; color: rgb(0, 0, 0); font-weight: normal; margin: 0px; padding: 0px; overflow: hidden; border: 0px; font-size: 42px; line-height: 1.375; word-wrap: break-word; flex-grow: 1;&quot; dir=&quot;ltr&quot; lang=&quot;sr-Latn&quot; class=&quot;firstHeading mw-first-heading&quot; id=&quot;firstHeading&quot;&gt;ću&lt;/h1&gt;&lt;div&gt;ćeš&lt;/div&gt;&lt;div&gt;će&lt;/div&gt;" style="text;whiteSpace=wrap;html=1;fontSize=42;fontFamily=Helvetica;strokeWidth=2;" vertex="1" parent="1">
          <mxGeometry x="160" y="470" width="180" height="50" as="geometry" />
        </mxCell>
        <mxCell id="BZpx_RzHeT3GizgwGUlG-16" value="&lt;h1 style=&quot;font-style: normal; font-variant-caps: normal; letter-spacing: normal; text-align: start; text-indent: 0px; text-transform: none; white-space: normal; word-spacing: 0px; -webkit-text-stroke-width: 0px; text-decoration: none; color: rgb(0, 0, 0); font-weight: normal; margin: 0px; padding: 0px; overflow: hidden; border: 0px; font-size: 42px; line-height: 1.375; word-wrap: break-word; flex-grow: 1;&quot; dir=&quot;ltr&quot; lang=&quot;sr-Latn&quot; class=&quot;firstHeading mw-first-heading&quot; id=&quot;firstHeading&quot;&gt;ćemo&lt;/h1&gt;&lt;div&gt;ćete&lt;/div&gt;&lt;div&gt;će&lt;/div&gt;" style="text;whiteSpace=wrap;html=1;fontSize=42;fontFamily=Helvetica;strokeWidth=2;" vertex="1" parent="1">
          <mxGeometry x="280" y="470" width="180" height="50" as="geometry" />
        </mxCell>
        <mxCell id="BZpx_RzHeT3GizgwGUlG-19" value="&lt;h1 style=&quot;font-style: normal; font-variant-caps: normal; letter-spacing: normal; text-align: start; text-indent: 0px; text-transform: none; white-space: normal; word-spacing: 0px; -webkit-text-stroke-width: 0px; text-decoration: none; color: rgb(0, 0, 0); font-weight: normal; margin: 0px; padding: 0px; overflow: hidden; border: 0px; font-size: 42px; line-height: 1.375; word-wrap: break-word; flex-grow: 1;&quot; dir=&quot;ltr&quot; lang=&quot;sr-Latn&quot; class=&quot;firstHeading mw-first-heading&quot; id=&quot;firstHeading&quot;&gt;bih&lt;/h1&gt;&lt;div&gt;bi&lt;/div&gt;&lt;div&gt;bi&lt;/div&gt;" style="text;whiteSpace=wrap;html=1;fontSize=42;fontFamily=Helvetica;strokeWidth=2;" vertex="1" parent="1">
          <mxGeometry x="160" y="670" width="180" height="50" as="geometry" />
        </mxCell>
        <mxCell id="BZpx_RzHeT3GizgwGUlG-20" value="&lt;h1 style=&quot;font-style: normal; font-variant-caps: normal; letter-spacing: normal; text-align: start; text-indent: 0px; text-transform: none; white-space: normal; word-spacing: 0px; -webkit-text-stroke-width: 0px; text-decoration: none; color: rgb(0, 0, 0); font-weight: normal; margin: 0px; padding: 0px; overflow: hidden; border: 0px; font-size: 42px; line-height: 1.375; word-wrap: break-word; flex-grow: 1;&quot; dir=&quot;ltr&quot; lang=&quot;sr-Latn&quot; class=&quot;firstHeading mw-first-heading&quot; id=&quot;firstHeading&quot;&gt;bismo&lt;/h1&gt;&lt;div&gt;biste&lt;/div&gt;&lt;div&gt;bi&lt;/div&gt;" style="text;whiteSpace=wrap;html=1;fontSize=42;fontFamily=Helvetica;strokeWidth=2;" vertex="1" parent="1">
          <mxGeometry x="280" y="670" width="180" height="50" as="geometry" />
        </mxCell>
        <mxCell id="BZpx_RzHeT3GizgwGUlG-21" value="&lt;h1 style=&quot;font-style: normal; font-variant-caps: normal; letter-spacing: normal; text-align: start; text-indent: 0px; text-transform: none; white-space: normal; word-spacing: 0px; -webkit-text-stroke-width: 0px; text-decoration: none; color: rgb(0, 0, 0); font-weight: normal; margin: 0px; padding: 0px; overflow: hidden; border: 0px; font-size: 42px; line-height: 1.375; word-wrap: break-word; flex-grow: 1;&quot; dir=&quot;ltr&quot; lang=&quot;sr-Latn&quot; class=&quot;firstHeading mw-first-heading&quot; id=&quot;firstHeading&quot;&gt;mi&lt;/h1&gt;&lt;div&gt;ti&lt;/div&gt;&lt;div&gt;mu / joj&lt;/div&gt;&lt;div style=&quot;font-size: 40px;&quot;&gt;&lt;br&gt;&lt;/div&gt;&lt;div&gt;nam&lt;/div&gt;&lt;div&gt;vam&lt;/div&gt;&lt;div&gt;im&lt;/div&gt;" style="text;whiteSpace=wrap;html=1;fontSize=42;fontFamily=Helvetica;strokeWidth=2;" vertex="1" parent="1">
          <mxGeometry x="480" y="270" width="180" height="50" as="geometry" />
        </mxCell>
        <mxCell id="BZpx_RzHeT3GizgwGUlG-22" value="&lt;h1 style=&quot;font-style: normal; font-variant-caps: normal; letter-spacing: normal; text-align: start; text-indent: 0px; text-transform: none; white-space: normal; word-spacing: 0px; -webkit-text-stroke-width: 0px; text-decoration: none; color: rgb(0, 0, 0); font-weight: normal; margin: 0px; padding: 0px; overflow: hidden; border: 0px; font-size: 42px; line-height: 1.375; word-wrap: break-word; flex-grow: 1;&quot; dir=&quot;ltr&quot; lang=&quot;sr-Latn&quot; class=&quot;firstHeading mw-first-heading&quot; id=&quot;firstHeading&quot;&gt;me&lt;/h1&gt;&lt;div&gt;te&lt;/div&gt;&lt;div&gt;ga / je (ju)&lt;/div&gt;&lt;div&gt;&lt;br&gt;&lt;/div&gt;&lt;div&gt;nas&lt;/div&gt;&lt;div&gt;vas&lt;/div&gt;&lt;div&gt;ih&lt;/div&gt;" style="text;whiteSpace=wrap;html=1;fontSize=42;fontFamily=Helvetica;strokeWidth=2;" vertex="1" parent="1">
          <mxGeometry x="680" y="270" width="200" height="50" as="geometry" />
        </mxCell>
        <mxCell id="BZpx_RzHeT3GizgwGUlG-24" value="" style="endArrow=none;html=1;rounded=0;strokeWidth=2;" edge="1" parent="1">
          <mxGeometry width="50" height="50" relative="1" as="geometry">
            <mxPoint x="440" y="840" as="sourcePoint" />
            <mxPoint x="440" y="80" as="targetPoint" />
          </mxGeometry>
        </mxCell>
        <mxCell id="BZpx_RzHeT3GizgwGUlG-25" value="" style="endArrow=none;html=1;rounded=0;strokeWidth=2;" edge="1" parent="1">
          <mxGeometry width="50" height="50" relative="1" as="geometry">
            <mxPoint x="120" y="840" as="sourcePoint" />
            <mxPoint x="120" y="80" as="targetPoint" />
          </mxGeometry>
        </mxCell>
        <mxCell id="BZpx_RzHeT3GizgwGUlG-26" value="" style="endArrow=none;html=1;rounded=0;strokeWidth=2;" edge="1" parent="1">
          <mxGeometry width="50" height="50" relative="1" as="geometry">
            <mxPoint x="640" y="840" as="sourcePoint" />
            <mxPoint x="640" y="80" as="targetPoint" />
          </mxGeometry>
        </mxCell>
        <mxCell id="BZpx_RzHeT3GizgwGUlG-27" value="" style="endArrow=none;html=1;rounded=0;strokeWidth=2;" edge="1" parent="1">
          <mxGeometry width="50" height="50" relative="1" as="geometry">
            <mxPoint x="880" y="840" as="sourcePoint" />
            <mxPoint x="880" y="80" as="targetPoint" />
          </mxGeometry>
        </mxCell>
        <mxCell id="BZpx_RzHeT3GizgwGUlG-28" value="" style="endArrow=none;html=1;rounded=0;strokeWidth=2;" edge="1" parent="1">
          <mxGeometry width="50" height="50" relative="1" as="geometry">
            <mxPoint x="10" y="80" as="sourcePoint" />
            <mxPoint x="990" y="80" as="targetPoint" />
          </mxGeometry>
        </mxCell>
        <mxCell id="BZpx_RzHeT3GizgwGUlG-29" value="" style="endArrow=none;html=1;rounded=0;strokeWidth=2;" edge="1" parent="1">
          <mxGeometry width="50" height="50" relative="1" as="geometry">
            <mxPoint x="10" y="240" as="sourcePoint" />
            <mxPoint x="990" y="240" as="targetPoint" />
          </mxGeometry>
        </mxCell>
        <mxCell id="BZpx_RzHeT3GizgwGUlG-30" value="" style="endArrow=none;html=1;rounded=0;strokeWidth=2;" edge="1" parent="1">
          <mxGeometry width="50" height="50" relative="1" as="geometry">
            <mxPoint x="120" y="440" as="sourcePoint" />
            <mxPoint x="440" y="440" as="targetPoint" />
          </mxGeometry>
        </mxCell>
        <mxCell id="BZpx_RzHeT3GizgwGUlG-31" value="" style="endArrow=none;html=1;rounded=0;strokeWidth=2;" edge="1" parent="1">
          <mxGeometry width="50" height="50" relative="1" as="geometry">
            <mxPoint x="120" y="640" as="sourcePoint" />
            <mxPoint x="440" y="640" as="targetPoint" />
          </mxGeometry>
        </mxCell>
        <mxCell id="BZpx_RzHeT3GizgwGUlG-33" value="" style="endArrow=none;html=1;rounded=0;strokeWidth=2;" edge="1" parent="1">
          <mxGeometry width="50" height="50" relative="1" as="geometry">
            <mxPoint x="10" y="840" as="sourcePoint" />
            <mxPoint x="990" y="840" as="targetPoint" />
          </mxGeometry>
        </mxCell>
        <mxCell id="BZpx_RzHeT3GizgwGUlG-34" value="" style="endArrow=none;html=1;rounded=0;strokeWidth=2;" edge="1" parent="1">
          <mxGeometry width="50" height="50" relative="1" as="geometry">
            <mxPoint x="10" y="840" as="sourcePoint" />
            <mxPoint x="10" y="80" as="targetPoint" />
          </mxGeometry>
        </mxCell>
        <mxCell id="BZpx_RzHeT3GizgwGUlG-35" value="" style="endArrow=none;html=1;rounded=0;strokeWidth=2;" edge="1" parent="1">
          <mxGeometry width="50" height="50" relative="1" as="geometry">
            <mxPoint x="990" y="840" as="sourcePoint" />
            <mxPoint x="990" y="80" as="targetPoint" />
          </mxGeometry>
        </mxCell>
      </root>
    </mxGraphModel>
  </diagram>
</mxfile>
